<?xml version="1.0" encoding="UTF-8" standalone="no"?>
<svg xmlns:ffdec="https://www.free-decompiler.com/flash" xmlns:xlink="http://www.w3.org/1999/xlink" ffdec:objectType="shape" height="147.0px" width="147.0px" xmlns="http://www.w3.org/2000/svg">
  <g transform="matrix(1.0, 0.0, 0.0, 1.0, -2.5, -2.5)">
    <path d="M16.85 3.1 L16.85 2.5 149.5 2.5 149.5 149.5 2.5 149.5 2.5 16.85 2.85 16.85 2.85 15.75 3.85 15.75 3.85 14.85 4.75 14.85 4.75 14.1 5.6 14.1 5.6 13.75 6.1 13.75 6.1 13.0 7.0 13.0 7.0 12.0 8.1 12.0 8.1 10.85 9.25 10.85 9.25 10.0 10.1 10.0 10.1 9.0 10.85 9.0 10.85 8.35 11.25 8.35 11.25 7.85 12.0 7.85 12.0 7.0 13.0 7.0 13.0 6.0 14.1 6.0 14.1 5.25 15.1 5.25 15.1 4.0 16.1 4.0 16.1 3.1 16.85 3.1" fill="#e9e2c0" fill-rule="evenodd" stroke="none"/>
  </g>
</svg>
