<?xml version="1.0" encoding="UTF-8" standalone="no"?>
<svg xmlns:ffdec="https://www.free-decompiler.com/flash" xmlns:xlink="http://www.w3.org/1999/xlink" ffdec:objectType="shape" height="89.0px" width="502.55px" xmlns="http://www.w3.org/2000/svg">
  <g transform="matrix(1.0, 0.0, 0.0, 1.0, 0.0, 0.0)">
    <path d="M383.9 33.25 L383.9 14.95 420.3 52.0 383.9 89.0 383.9 70.45 402.05 52.0 383.65 33.25 383.9 33.25 M466.15 33.25 L466.15 14.95 502.55 52.0 466.15 89.0 466.15 70.45 484.3 52.0 465.9 33.25 466.15 33.25 M219.0 33.25 L219.0 14.95 255.4 52.0 219.0 89.0 219.0 70.45 237.15 52.0 218.75 33.25 219.0 33.25 M319.8 52.0 L301.4 33.25 301.65 33.25 301.65 14.95 338.05 52.0 301.65 89.0 301.65 70.45 319.8 52.0 M72.65 52.0 L54.25 33.25 54.5 33.25 54.5 14.95 90.9 52.0 54.5 89.0 54.5 70.45 72.65 52.0 M136.75 33.25 L136.75 14.95 173.15 52.0 136.75 89.0 136.75 70.45 154.9 52.0 136.5 33.25 136.75 33.25" fill="#d1f2ff" fill-rule="evenodd" stroke="none"/>
    <path d="M412.7 33.25 L412.7 14.95 449.1 52.0 412.7 89.0 412.7 70.45 430.85 52.0 412.45 33.25 412.7 33.25 M372.8 52.0 L354.4 33.25 354.65 33.25 354.65 14.95 391.05 52.0 354.65 89.0 354.65 70.45 372.8 52.0 M438.75 33.25 L439.0 33.25 439.0 14.95 475.4 52.0 439.0 89.0 439.0 70.45 457.15 52.0 438.75 33.25 M247.4 33.25 L247.4 14.95 283.8 52.0 247.4 89.0 247.4 70.45 265.55 52.0 247.15 33.25 247.4 33.25 M191.6 33.25 L191.85 33.25 191.85 14.95 228.25 52.0 191.85 89.0 191.85 70.45 210.0 52.0 191.6 33.25 M328.35 33.25 L328.35 14.95 364.75 52.0 328.35 89.0 328.35 70.45 346.5 52.0 328.1 33.25 328.35 33.25 M273.7 33.25 L273.7 14.95 310.1 52.0 273.7 89.0 273.7 70.45 291.85 52.0 273.45 33.25 273.7 33.25 M81.2 33.25 L81.2 14.95 117.6 52.0 81.2 89.0 81.2 70.45 99.35 52.0 80.95 33.25 81.2 33.25 M26.55 33.25 L26.55 14.95 62.95 52.0 26.55 89.0 26.55 70.45 44.7 52.0 26.3 33.25 26.55 33.25 M165.55 33.25 L165.55 14.95 201.95 52.0 165.55 89.0 165.55 70.45 183.7 52.0 165.3 33.25 165.55 33.25 M125.65 52.0 L107.25 33.25 107.5 33.25 107.5 14.95 143.9 52.0 107.5 89.0 107.5 70.45 125.65 52.0 M0.25 33.25 L0.25 14.95 36.65 52.0 0.25 89.0 0.25 70.45 18.4 52.0 0.0 33.25 0.25 33.25" fill="#95b6e3" fill-rule="evenodd" stroke="none"/>
    <path d="M136.75 5.0 L136.75 0.0 141.7 0.0 136.75 5.0" fill="#ff00ff" fill-rule="evenodd" stroke="none"/>
  </g>
</svg>
