<?xml version="1.0" encoding="UTF-8" standalone="no"?>
<svg xmlns:ffdec="https://www.free-decompiler.com/flash" xmlns:xlink="http://www.w3.org/1999/xlink" ffdec:objectType="shape" height="13.0px" width="97.7px" xmlns="http://www.w3.org/2000/svg">
  <g transform="matrix(1.0, 0.0, 0.0, 1.0, -20.9, -6.85)">
    <path d="M118.6 6.85 L118.6 19.85 107.85 19.85 107.85 6.85 118.6 6.85 M104.25 19.85 L93.3 19.85 93.3 6.85 104.25 6.85 104.25 19.85 M89.85 19.85 L78.95 19.85 78.95 6.85 89.85 6.85 89.85 19.85 M75.3 6.85 L75.3 19.85 64.55 19.85 64.55 6.85 75.3 6.85 M60.75 19.85 L50.0 19.85 50.0 6.85 60.75 6.85 60.75 19.85 M46.2 19.85 L35.45 19.85 35.45 6.85 46.2 6.85 46.2 19.85 M31.65 6.85 L31.65 19.85 20.9 19.85 20.9 6.85 31.65 6.85" fill="#00ff66" fill-rule="evenodd" stroke="none"/>
  </g>
</svg>
