<?xml version="1.0" encoding="UTF-8" standalone="no"?>
<svg xmlns:ffdec="https://www.free-decompiler.com/flash" xmlns:xlink="http://www.w3.org/1999/xlink" ffdec:objectType="shape" height="13.0px" width="41.0px" xmlns="http://www.w3.org/2000/svg">
  <g transform="matrix(1.0, 0.0, 0.0, 1.0, 0.0, 0.0)">
    <path d="M41.0 13.0 L39.0 13.0 39.0 0.0 41.0 0.0 41.0 13.0 M38.0 2.0 L38.0 11.0 36.0 11.0 36.0 2.0 38.0 2.0 M34.95 11.0 L32.95 11.0 32.95 2.0 34.95 2.0 34.95 11.0 M28.95 2.0 L28.95 11.0 26.95 11.0 26.95 2.0 28.95 2.0 M23.0 0.0 L23.0 13.0 21.0 13.0 21.0 0.0 23.0 0.0 M24.0 11.0 L24.0 2.0 26.0 2.0 26.0 11.0 24.0 11.0 M31.95 13.0 L29.95 13.0 29.95 0.0 31.95 0.0 31.95 13.0 M20.0 2.0 L20.0 11.0 18.0 11.0 18.0 2.0 20.0 2.0 M14.0 0.0 L14.0 13.0 12.0 13.0 12.0 0.0 14.0 0.0 M11.0 11.0 L9.0 11.0 9.0 2.0 11.0 2.0 11.0 11.0 M17.0 2.0 L17.0 11.0 15.0 11.0 15.0 2.0 17.0 2.0 M8.0 2.0 L8.0 11.0 6.0 11.0 6.0 2.0 8.0 2.0 M2.0 2.0 L2.0 11.0 0.0 11.0 0.0 2.0 2.0 2.0 M5.0 0.0 L5.0 13.0 3.0 13.0 3.0 0.0 5.0 0.0" fill="#ff00ff" fill-rule="evenodd" stroke="none"/>
  </g>
</svg>
