<?xml version="1.0" encoding="UTF-8" standalone="no"?>
<svg xmlns:ffdec="https://www.free-decompiler.com/flash" xmlns:xlink="http://www.w3.org/1999/xlink" ffdec:objectType="shape" height="7.55px" width="45.0px" xmlns="http://www.w3.org/2000/svg">
  <g transform="matrix(1.0, 0.0, 0.0, 1.0, -0.4, 0.1)">
    <path d="M45.4 7.0 L0.4 7.0 0.4 0.0 45.4 0.0 45.4 7.0" fill="url(#gradient0)" fill-rule="evenodd" stroke="none"/>
    <path d="M42.0 0.0 L42.0 7.0 M27.0 0.1 L27.0 7.1 M21.0 0.2 L21.0 7.2 M24.0 0.2 L24.0 7.2 M39.0 0.1 L39.0 7.1 M36.0 0.1 L36.0 7.1 M33.0 0.1 L33.0 7.1 M30.0 0.1 L30.0 7.1 M3.0 0.35 L3.0 7.35 M9.0 0.35 L9.0 7.35 M6.0 0.35 L6.0 7.35 M12.0 0.25 L12.0 7.25 M15.0 0.2 L15.0 7.2 M18.0 0.2 L18.0 7.2" ffdec:has-small-stroke="true" ffdec:original-stroke-width="0.25" fill="none" stroke="#666666" stroke-linecap="butt" stroke-linejoin="round" stroke-width="1.0"/>
  </g>
  <defs>
    <linearGradient gradientTransform="matrix(0.0275, 0.0, 0.0, 0.0043, 22.9, 3.5)" gradientUnits="userSpaceOnUse" id="gradient0" spreadMethod="pad" x1="-819.2" x2="819.2">
      <stop offset="0.0" stop-color="#ff0000"/>
      <stop offset="1.0" stop-color="#00cc33"/>
    </linearGradient>
  </defs>
</svg>
