<?xml version="1.0" encoding="UTF-8" standalone="no"?>
<svg xmlns:ffdec="https://www.free-decompiler.com/flash" xmlns:xlink="http://www.w3.org/1999/xlink" ffdec:objectType="shape" height="129.0px" width="225.1px" xmlns="http://www.w3.org/2000/svg">
  <g transform="matrix(1.0, 0.0, 0.0, 1.0, 0.55, 0.5)">
    <path d="M224.05 36.0 L145.1 36.0 145.05 36.0 145.05 35.9 145.05 0.0 145.1 0.0 208.45 0.0 224.05 15.5 224.05 35.9 224.05 36.0" fill="#00ff99" fill-rule="evenodd" stroke="none"/>
    <path d="M224.05 106.0 L224.05 116.5 223.9 116.6 223.4 117.1 223.1 117.4 222.8 117.7 222.65 117.95 222.6 118.0 222.55 118.0 222.4 118.1 222.2 118.2 221.9 118.5 221.8 118.7 221.6 118.8 221.2 119.3 221.0 119.4 220.9 119.6 220.9 119.65 220.6 119.9 220.4 120.25 220.3 120.3 220.1 120.6 219.8 120.8 219.5 121.1 218.9 121.7 218.85 121.8 218.75 121.85 218.3 122.1 218.1 122.3 218.05 122.35 218.0 122.4 217.95 122.55 217.8 122.6 217.75 122.65 217.7 122.7 217.65 122.85 217.5 122.9 217.4 123.1 215.7 124.7 215.6 124.95 215.1 125.4 214.95 125.6 214.8 125.7 214.55 126.15 214.3 126.3 214.2 126.5 214.1 126.7 213.7 126.9 213.55 127.15 213.25 127.35 213.1 127.4 213.1 127.45 213.05 127.45 212.8 127.6 212.6 127.7 212.5 127.85 145.1 128.0 145.05 128.0 145.05 127.75 145.05 106.0 145.1 106.0 224.05 106.0" fill="#33cc00" fill-rule="evenodd" stroke="none"/>
    <path d="M40.05 0.0 L145.05 0.0 145.05 35.9 145.05 36.0 40.05 36.0 40.05 35.9 40.05 0.0" fill="#0000ff" fill-rule="evenodd" stroke="none"/>
    <path d="M40.05 36.0 L40.05 105.9 40.05 106.0 40.0 106.0 0.3 106.0 0.05 106.0 0.05 105.9 0.05 36.0 34.15 36.0 40.0 36.0 40.05 36.0" fill="#ccff66" fill-rule="evenodd" stroke="none"/>
    <path d="M40.05 127.45 L40.05 127.95 40.0 127.95 16.05 128.0 15.5 127.45 40.05 127.45 15.5 127.45 0.3 127.45 0.3 111.9 0.3 106.0 40.0 106.0 40.05 106.0 40.05 127.45 M0.3 106.0 L0.3 111.9 0.05 111.65 0.05 106.0 0.3 106.0" fill="#9900cc" fill-rule="evenodd" stroke="none"/>
    <path d="M40.05 127.95 L40.05 127.45 40.05 106.0 145.05 106.0 145.05 127.75 40.05 128.0 40.05 127.95" fill="#51fffe" fill-rule="evenodd" stroke="none"/>
    <path d="M224.05 36.0 L224.05 105.9 224.05 106.0 145.1 106.0 145.05 106.0 145.05 105.9 145.05 36.0 145.1 36.0 224.05 36.0" fill="#cc66ff" fill-rule="evenodd" stroke="none"/>
    <path d="M145.05 36.0 L145.05 105.9 145.05 106.0 40.05 106.0 40.05 105.9 40.05 36.0 145.05 36.0" fill="#663333" fill-rule="evenodd" stroke="none"/>
    <path d="M40.05 0.0 L40.05 35.9 40.05 36.0 40.0 36.0 34.15 36.0 34.15 0.15 18.75 0.15 34.15 0.15 34.15 36.0 0.05 36.0 -0.05 36.0 -0.05 0.15 18.75 0.15 18.45 0.0 40.0 0.0 40.05 0.0" fill="#990000" fill-rule="evenodd" stroke="none"/>
    <path d="M-0.05 0.15 L18.75 0.15 34.15 0.15 34.15 36.0 0.05 36.0 -0.05 36.0 -0.05 0.15 M0.3 106.0 L40.0 106.0 40.05 106.0 40.05 127.45 15.5 127.45 0.3 127.45 0.3 111.9 0.3 106.0 Z" fill="none" stroke="#0000ff" stroke-linecap="round" stroke-linejoin="round" stroke-width="1.0"/>
  </g>
</svg>
