<?xml version="1.0" encoding="UTF-8" standalone="no"?>
<svg xmlns:ffdec="https://www.free-decompiler.com/flash" xmlns:xlink="http://www.w3.org/1999/xlink" ffdec:objectType="shape" height="121.0px" width="219.0px" xmlns="http://www.w3.org/2000/svg">
  <g transform="matrix(1.0, 0.0, 0.0, 1.0, 0.0, 0.0)">
    <path d="M142.0 0.0 L142.05 0.0 216.05 0.0 219.0 2.95 219.0 22.0 177.0 22.0 177.0 23.0 219.0 23.0 219.0 35.95 219.0 36.0 142.05 36.0 142.0 36.0 142.0 35.95 142.0 0.0" fill="#996633" fill-rule="evenodd" stroke="none"/>
    <path d="M219.0 105.0 L219.0 105.9 218.95 105.9 203.85 121.0 142.05 121.0 142.0 121.0 142.0 105.0 142.05 105.0 219.0 105.0" fill="#660099" fill-rule="evenodd" stroke="none"/>
    <path d="M219.0 36.0 L219.0 105.0 142.05 105.0 142.0 105.0 142.0 36.0 142.05 36.0 219.0 36.0" fill="#99ff33" fill-rule="evenodd" stroke="none"/>
    <path d="M37.0 0.0 L142.0 0.0 142.0 35.95 142.0 36.0 37.0 36.0 37.0 35.95 37.0 0.0" fill="#ff0033" fill-rule="evenodd" stroke="none"/>
    <path d="M0.0 36.0 L0.0 35.95 0.0 2.95 2.95 0.0 36.95 0.0 37.0 0.0 37.0 35.95 37.0 36.0 36.95 36.0 0.0 36.0" fill="#ff6633" fill-rule="evenodd" stroke="none"/>
    <path d="M0.0 105.0 L0.0 36.0 36.95 36.0 37.0 36.0 37.0 105.0 36.95 105.0 0.0 105.0" fill="#ffcc00" fill-rule="evenodd" stroke="none"/>
    <path d="M37.0 121.0 L36.95 121.0 0.0 121.0 0.0 105.0 36.95 105.0 37.0 105.0 37.0 121.0" fill="#9933cc" fill-rule="evenodd" stroke="none"/>
    <path d="M142.0 121.0 L37.0 121.0 37.0 105.0 37.0 36.0 142.0 36.0 142.0 105.0 142.0 121.0" fill="#660033" fill-rule="evenodd" stroke="none"/>
  </g>
</svg>
