<?xml version="1.0" encoding="UTF-8" standalone="no"?>
<svg xmlns:ffdec="https://www.free-decompiler.com/flash" xmlns:xlink="http://www.w3.org/1999/xlink" ffdec:objectType="shape" height="47.35px" width="46.05px" xmlns="http://www.w3.org/2000/svg">
  <g transform="matrix(1.0, 0.0, 0.0, 1.0, 22.95, 23.7)">
    <path d="M7.3 -7.2 Q4.35 -10.2 0.1 -10.2 -4.15 -10.2 -7.1 -7.2 -10.1 -4.2 -10.1 0.0 -10.1 4.2 -7.1 7.2 -4.15 10.2 0.1 10.2 4.35 10.2 7.3 7.2 10.3 4.2 10.3 0.0 10.3 -4.2 7.3 -7.2 M10.3 -13.75 L15.6 -16.6 18.2 -13.55 14.6 -9.1 Q16.35 -6.15 16.85 -3.05 L22.6 -1.95 22.6 1.95 16.85 3.15 Q16.25 6.65 14.6 9.1 L18.1 13.65 15.5 16.7 10.3 13.75 Q8.05 15.65 5.05 16.5 L4.85 22.25 0.65 22.85 -1.6 17.3 Q-4.15 17.1 -6.6 16.1 L-10.5 20.5 -14.3 18.05 -12.35 12.3 -15.2 8.7 -20.95 9.55 Q-21.9 7.7 -22.4 5.2 L-17.45 2.15 -17.45 0.0 -17.35 -2.25 -22.4 -5.25 Q-21.9 -7.6 -20.85 -9.75 L-15.1 -8.9 -12.25 -12.4 -14.1 -18.05 Q-12.45 -19.45 -10.3 -20.5 L-6.5 -16.1 Q-4.25 -17.1 -1.4 -17.3 L0.75 -22.85 4.95 -22.25 5.15 -16.5 Q7.85 -15.65 10.3 -13.75" fill="#ffcc66" fill-rule="evenodd" stroke="none"/>
    <path d="M10.3 -13.75 Q7.85 -15.65 5.15 -16.5 L4.95 -22.25 0.75 -22.85 -1.4 -17.3 Q-4.25 -17.1 -6.5 -16.1 L-10.3 -20.5 Q-12.45 -19.45 -14.1 -18.05 L-12.25 -12.4 -15.1 -8.9 -20.85 -9.75 Q-21.9 -7.6 -22.4 -5.25 L-17.35 -2.25 -17.45 0.0 -17.45 2.15 -22.4 5.2 Q-21.9 7.7 -20.95 9.55 L-15.2 8.7 -12.35 12.3 -14.3 18.05 -10.5 20.5 -6.6 16.1 Q-4.15 17.1 -1.6 17.3 L0.65 22.85 4.85 22.25 5.05 16.5 Q8.05 15.65 10.3 13.75 L15.5 16.7 18.1 13.65 14.6 9.1 Q16.25 6.65 16.85 3.15 L22.6 1.95 22.6 -1.95 16.85 -3.05 Q16.35 -6.15 14.6 -9.1 L18.2 -13.55 15.6 -16.6 10.3 -13.75 M7.3 -7.2 Q10.3 -4.2 10.3 0.0 10.3 4.2 7.3 7.2 4.35 10.2 0.1 10.2 -4.15 10.2 -7.1 7.2 -10.1 4.2 -10.1 0.0 -10.1 -4.2 -7.1 -7.2 -4.15 -10.2 0.1 -10.2 4.35 -10.2 7.3 -7.2 Z" fill="none" stroke="#373535" stroke-linecap="butt" stroke-linejoin="miter-clip" stroke-miterlimit="10.0" stroke-width="1.0"/>
  </g>
</svg>
