<?xml version="1.0" encoding="UTF-8" standalone="no"?>
<svg xmlns:ffdec="https://www.free-decompiler.com/flash" xmlns:xlink="http://www.w3.org/1999/xlink" ffdec:objectType="shape" height="21.0px" width="21.0px" xmlns="http://www.w3.org/2000/svg">
  <g transform="matrix(1.0, 0.0, 0.0, 1.0, 10.5, 10.5)">
    <path d="M7.1 -7.05 Q10.0 -4.15 10.0 0.0 10.0 4.15 7.1 7.1 4.15 10.0 0.0 10.0 -4.15 10.0 -7.05 7.1 -10.0 4.15 -10.0 0.0 -10.0 -4.15 -7.05 -7.05 -4.15 -10.0 0.0 -10.0 4.15 -10.0 7.1 -7.05" fill="#66ff00" fill-opacity="0.24705882" fill-rule="evenodd" stroke="none"/>
    <path d="M7.1 -7.05 Q10.0 -4.15 10.0 0.0 10.0 4.15 7.1 7.1 4.15 10.0 0.0 10.0 -4.15 10.0 -7.05 7.1 -10.0 4.15 -10.0 0.0 -10.0 -4.15 -7.05 -7.05 -4.15 -10.0 0.0 -10.0 4.15 -10.0 7.1 -7.05 Z" fill="none" stroke="#00cc00" stroke-linecap="round" stroke-linejoin="round" stroke-width="1.0"/>
  </g>
</svg>
